<?xml version="1.0" standalone="no"?>
<!DOCTYPE svg PUBLIC "-//W3C//DTD SVG 20010904//EN"
 "http://www.w3.org/TR/2001/REC-SVG-20010904/DTD/svg10.dtd">
<svg version="1.0" xmlns="http://www.w3.org/2000/svg"
 width="16" height="16" viewBox="0 0 300.000000 243.000000"
 preserveAspectRatio="xMidYMid meet">

<g transform="translate(0.000000,243.000000) scale(0.100000,-0.100000)"
stroke="none"
color="#000" fill="#2e3436">
<path d="M135 2411 c-80 -37 -134 -117 -135 -202 0 -54 41 -142 76 -166 l24
-15 0 -813 0 -813 -24 -15 c-35 -24 -76 -112 -76 -166 1 -155 165 -264 305
-202 65 29 83 46 111 106 46 96 23 203 -57 267 l-39 31 0 213 0 212 380 218
380 219 0 335 0 335 -88 88 -89 88 5 53 c8 101 -37 182 -122 222 -88 41 -183
25 -249 -42 -41 -41 -59 -80 -64 -143 -4 -48 -1 -64 24 -111 39 -73 100 -112
186 -118 60 -4 64 -6 125 -65 l62 -61 0 -227 0 -227 -271 -156 c-149 -86 -273
-156 -275 -156 -2 0 -4 206 -4 458 l0 457 29 17 c75 42 111 162 77 253 -25 63
-53 94 -110 121 -61 29 -126 30 -181 5z m126 -126 c71 -37 56 -143 -21 -160
-96 -21 -146 122 -56 161 40 17 41 17 77 -1z m470 0 c71 -37 56 -143 -21 -160
-96 -21 -146 122 -56 161 40 17 41 17 77 -1z m-450 -2001 c42 -38 31 -112 -21
-139 -69 -36 -145 30 -119 104 20 57 95 76 140 35z"/>
<path d="M1286 2415 c-91 -32 -156 -141 -142 -237 9 -58 49 -120 97 -149 l38
-24 1 -587 c0 -324 3 -588 8 -588 4 0 158 87 342 194 l335 193 5 -183 5 -184
458 261 457 260 0 324 0 324 29 20 c39 28 81 114 81 167 0 120 -102 224 -220
224 -58 0 -142 -40 -174 -84 -71 -95 -57 -234 30 -304 l34 -27 0 -262 0 -261
-239 -136 c-132 -75 -242 -136 -245 -136 -3 0 -6 180 -6 399 l0 400 29 20 c41
29 81 114 81 170 -1 127 -115 231 -239 219 -172 -17 -259 -216 -154 -356 14
-18 36 -38 49 -44 l24 -11 0 -276 0 -276 -227 -130 c-125 -71 -233 -131 -240
-133 -11 -3 -13 76 -13 410 l0 414 30 29 c69 66 80 197 24 278 -56 80 -165
115 -258 82z m142 -151 c27 -31 28 -73 2 -107 -36 -45 -102 -44 -137 2 -21 27
-16 85 10 108 43 40 87 39 125 -3z m676 22 c69 -29 67 -127 -3 -155 -99 -42
-166 103 -72 154 33 18 35 18 75 1z m710 0 c22 -9 37 -24 44 -45 38 -107 -119
-168 -159 -62 -15 39 -1 80 34 102 38 23 39 23 81 5z"/>
</g>
</svg>
